<?xml version="1.0" encoding="utf-8"?>
<!-- Generator: Adobe Illustrator 20.1.0, SVG Export Plug-In . SVG Version: 6.00 Build 0)  -->
<svg version="1.1" id="Calque_1" xmlns="http://www.w3.org/2000/svg" xmlns:xlink="http://www.w3.org/1999/xlink" x="0px" y="0px"
	 viewBox="0 0 1086.8 135.8" style="enable-background:new 0 0 1086.8 135.8;" xml:space="preserve">
<style type="text/css">
	.st0{display:none;}
	.st1{display:inline;opacity:0.46;}
	.st2{display:inline;fill:none;stroke:#F7931E;stroke-miterlimit:10;}
	.st3{fill:#9E2026;stroke:#000000;stroke-width:5;stroke-miterlimit:10;}
	.st4{fill:none;stroke:#000000;stroke-miterlimit:10;}
	.st5{fill:none;}
	.st6{fill:#9E2026;stroke:#020202;stroke-width:5;stroke-miterlimit:10;}
</style>
<g id="Modele" class="st0">
	<g id="QAynlF.tif" class="st1">
		
			<image style="overflow:visible;enable-background:new    ;" width="437" height="561" id="Layer_0" xlink:href="1F673BB6D72D011F.png"  transform="matrix(1 0 0 1 -771.4059 -594.7029)">
		</image>
	</g>
	<path class="st2" d="M-494.7-495.2c0,3.5-8.8,6.3-19.8,6.3c-10.9,0-19.8-2.8-19.8-6.3s8.8-5.3,19.8-5.3S-494.7-498.7-494.7-495.2z"
		/>
</g>
<g id="Calque_2">
	<circle class="st3" cx="220.7" cy="119.3" r="15.6"/>
	<path d="M0,127.7c6.9-0.1,7.2-0.5,7.2-7.3c0-34,0-68,0-102.1c0-1.7,0.1-3.4,0.2-5c3.6-1.2,5.9-0.3,8,2.7
		c11.8,16.1,23.7,32,35.7,47.9c0.8,1,1.6,2,2.8,3.4c1.2-1.3,2.2-2.3,3-3.4c12-15.9,24-31.8,35.7-47.9c2.2-3,4.4-3.7,8.1-2.6
		c0,1.6,0,3.3,0,5c0,34.2,0,68.3,0.1,102.5c0,2.1,1.1,5.9,2.1,6.1c3.6,0.6,7.5,0.4,11.2-0.4c0.8-0.2,1.4-3.5,1.4-5.4
		c0.1-19.4,0.1-38.8,0.1-58.2c0-15,0-30,0-45c0-1.6,0.2-3.1,0.2-4.9c1.7-0.1,2.9-0.2,4.2-0.2c14.1,0,28.2,0.2,42.3,0
		c16.4-0.2,32.9,11.5,32.8,32.4c-0.1,19.5-12.9,32.8-32.5,33c-5.8,0.1-11.6,0-17.3,0c-0.1,0.3-0.3,0.7-0.4,1c0.9,1,1.7,2.1,2.7,3.1
		c14.1,14.1,28.1,28.2,42.3,42.2c1.5,1.5,4,2.7,6.1,2.8c7.1,0.5,7.1,0.2,5.8,8.1c-3.9,0-7.8,0.1-11.7-0.1c-0.9,0-1.8-0.9-2.5-1.6
		c-18.2-18-36.4-36.1-54.7-54c-2.5-2.5-2.4-5.2-2-8c0.1-0.7,2.2-1.6,3.3-1.6c9.6-0.1,19.1,0,28.7-0.1c10.6-0.2,20-6.2,22.6-15.8
		c5-18.3-3.4-32.6-22.7-33.5c-11.4-0.5-22.9,0-34.3-0.2c-3.6-0.1-4.4,1.1-4.4,4.5c0.1,32.6,0,65.1,0.1,97.7c0,5.3-1.6,10.3-6.7,11.4
		c-5.9,1.3-12.4,1.4-18.2,0.2c-5.2-1.1-6.9-6.4-6.9-11.8c0.1-28.8,0-57.7,0-86.5c0-1.5-0.1-3-0.3-5.8c-1.6,1.9-2.4,2.9-3.2,3.9
		c-10.4,14.4-21,28.6-31.7,42.9c-3.1,4.1-3.2,4.1-6.4-0.1c-10.5-14-21-28-31.5-42.1c-0.8-1.1-1.7-2.2-3.6-3.1
		c-0.1,1.6-0.4,3.2-0.4,4.8c0,28.4,0,56.9,0,85.3c0,5.5-1.1,10.6-6.8,12.8c-2.6,1-5.7,0.7-8.6,0.9C0,133,0,130.3,0,127.7z"/>
	<path d="M279.1,135.3c0-1.8-0.3-3.6,0.1-5.2c0.2-0.9,1.4-2.4,2.2-2.4c4.3,0,4.9-2.7,4.9-6.1c0-12.9-0.1-25.8,0-38.7
		c0.1-8.2,4.7-12.9,12.1-12.6c6.2,0.2,10.7,4.6,10.9,10.9c0.1,6.9,0,13.8,0.1,20.7c0.1,7,3.8,11.1,10.2,11.2
		c6.5,0.1,10.5-4.1,10.5-11.3c0-25.6,0-51.3,0-76.9c0-4.6,1.5-8.3,5.5-10.8c5.8-3.6,14-0.3,15.3,6.4c0.5,2.5,0.5,5,0.5,7.5
		c0,30.7,0,61.4,0,92.1c0,6.9,0.4,7.3,7.2,7.3c15.3,0,30.6,0,45.8-0.1c2,0,4.5,0.8,4.8-2.6c0.2-2.8,0-4.8-3.6-5.9
		c-17.4-5.1-29.4-16.3-36.2-33.2c-11-27.5,4.8-60.7,32.9-70.2c29.1-9.8,58.2,5.5,68.7,31c11.6,28.2-4.2,62.4-33.3,71.5
		c-3.2,1-7.2,1.5-5.8,6.4c0.3,1.1,1.8,2.7,2.8,2.7c16.6,0.2,33.2,0.1,49.8,0.1c2.9,0,4.1-1.6,4.2-4.2c0.1-1.3,0-2.7,0-4
		c0-31,0-61.9,0-92.9c0-5,0.8-9.4,5.7-12.2c7.6-4.3,17.1,0.7,17.3,9.5c0.2,11.3,0.1,22.6,0.1,33.9c0,9.4,3.2,12.6,12.7,12.6
		c8.6,0,17.3,0.1,25.9,0c7-0.1,10.8-3.8,10.8-10.9c0.1-11.8,0-23.7,0.1-35.5c0.1-6.6,5-11.3,11.4-11.1c4.5,0.2,8.7,3.7,9.4,8.2
		c0.4,2.3,0.4,4.8,0.4,7.2c0,30.7,0,61.4,0.1,92.1c0,2.3,0.9,6.3,2,6.6c3.5,0.8,7.3,0.4,10.9-0.1c0.7-0.1,1.5-2.6,1.6-4.1
		c0.2-3.7,0.1-7.4,0.1-11.2c0-31.1,0-62.2,0-93.3c0-1.7,0.2-3.4,0.2-4.9c4.3-1.4,6.5-0.2,8.4,3.6c15.5,31.4,31.2,62.1,46.8,92.8
		c0.5,1,1.2,1.9,2.8,2.7c0-1.5,0-3,0-4.5c0-27.5,0-55,0-82.5c0-7.6,4.4-12.2,11.2-12c4.8,0.1,8.9,3.8,9.5,8.5
		c0.3,2.1,0.2,4.2,0.2,6.4c0,31,0,61.9,0.1,92.9c0,2.2,0.9,6,2,6.2c3.6,0.7,7.5,0.5,11.3-0.1c0.8-0.1,1.5-3.2,1.6-4.9
		c0.2-8.8,0.1-17.5,0.1-26.3c0-10.9,3-13.9,13.9-14.1c0.5,0,1-0.2,1.5-0.3c0.3-0.4,0.6-0.8,1-1.2c-0.7-0.3-1.6-0.4-2.2-0.8
		c-8.8-6.3-13-15-13.9-25.7c-1.4-16.6,5-29.3,18.7-36.5c19.2-10.2,43.6-1.7,50.8,18.2c2.2,6,2.3,13,2.2,19.6
		c-0.1,5.9-5.5,9.5-11.8,9.2c-5.4-0.3-9.6-4.4-10-10c-0.1-2,0-4-0.2-6c-0.5-7.7-6.4-13-14-12.8c-7.3,0.2-12.8,5.9-13,13.5
		c-0.2,7.7,4.7,13.3,12.6,13.5c8.2,0.2,15.8,2,22.5,6.9c12.8,9.3,15.6,22.4,13.6,37.2c-1,7.3-4.1,13.7-9.3,19
		c-0.4,0.4-0.7,1-1.4,2.2c1.8,0.1,3,0.2,4.3,0.2c19.7,0,39.3,0,59,0c1.9,0,4.5,0.9,4.9-2.4c0.4-3.1-0.2-5-3.8-6.1
		c-17.4-5.1-29.7-16.3-35.9-33.3c-10.5-28.8,3.9-59.6,32.8-69.8c29.3-10.3,58.8,5.4,68.9,31.1c11.9,30.5-5.3,62.2-33.2,71.2
		c-3.3,1.1-7.4,1.6-6,6.7c0.3,1,1.7,2.5,2.6,2.5c16.7,0.1,33.5,0.1,50.2,0.1c2.5,0,3.7-1.3,3.9-3.6c0.1-1.4,0.1-2.9,0.1-4.4
		c0-33.8,0-67.5,0-101.3c0-1.7,0.1-3.4,0.2-4.9c4.2-1.4,6.5-0.3,8.4,3.6c15.4,30.8,31.1,61.5,46.8,92.2c0.5,1,1.2,1.9,2.8,2.8
		c0-1.5,0-3,0-4.5c0-27.4,0-54.7,0-82.1c0-4.4,1.1-8.1,4.9-10.7c6.5-4.5,15.2-0.4,16,7.5c0.2,2,0.2,4,0.2,6c0,30.8,0,61.7,0.1,92.5
		c0,2.2,1.1,6.1,2.3,6.4c3.5,0.8,7.3,0.4,10.9-0.2c0.8-0.1,1.6-3.2,1.6-4.9c0.2-8.6,0.1-17.3,0.1-25.9c-0.1-13.7,15.5-11.1,27-11.4
		c0.4,0,1-2.6,1.5-3.6c-0.7-0.7-1.1-1.3-1.6-1.7c-3-2.2-7-7.4-9-10.1L997,71.9l0.2-14.4c2.3-2.5,6-3.6,10-4.4
		c-0.1-1.1-0.1-2.3,0-3.6c0.2-4.2,1-9,1.7-12.1L996.3,33l6.9-14.2c6.7,0.3,10,0.2,15.9,2.6c1.5-1.2,3.1-2.4,4.9-3.4l-3.9-14.7
		l15.1-2.3c4,2.6,8.3,6.8,10.6,11.4c2.3,0.2,4.6,0.6,7,1.3l0.3-13.7l15.9,6.6c0.4,5.1,0,8.4-1.2,15c5.4,3.8,6.8,6.9,9.1,13.5
		c2.2,6,2.4,13,2.3,19.6c-0.1,6-3.8,9.5-10.2,9.2c-5.6-0.3-11.3-4.5-11.7-10.4c-0.1-1.7,0-3.5-0.1-5.2c-0.4-7.8-6-13.3-13.6-13.2
		c-7.5,0-13.2,5.7-13.4,13.4c-0.2,7.8,6.4,13.4,14.5,13.6c8.1,0.2,15.6,2.1,22.1,6.8c12.9,9.4,14.2,22.7,11.9,37.5
		c-0.6,3.7-1.9,7.5-3.6,10.8c-1.7,3.4-4.2,6.3-7,10.2c4.9,0,9.4,0,13.8,0c4.5,0,5.4,0.9,4.7,5.4c-0.2,1-1.6,2.5-2.5,2.5
		c-13.4,0.2-26.8,0.1-40.6,0.1c-0.1-1.4-0.2-2.6-0.3-3.7c-0.3-2.9,0.5-4.1,3.8-4.6c7.9-1.2,15.1-4.2,19.9-11.1
		c12.7-18.3,3.1-41.5-19.6-44.2c-2.8-0.3-5.5-0.8-8.2-1.4c-8.8-2-15.3-7.8-16.6-16.5c-1.3-9.4,0.9-17.9,9.4-23.4
		c7.8-5.1,16.2-4.9,24,0.1c5.7,3.6,8.4,9.4,9.2,16c0.2,1.8-0.3,3.8,0.3,5.5c0.4,1.3,1.9,2.3,2.9,3.5c1.1-1.1,3-2,3.1-3.2
		c2.1-13.4-5.4-25.8-17.7-30c-12.9-4.4-27.6,0.3-34.1,11c-12,19.8,2.3,43.7,25.3,44.6c11.3,0.5,17.3,6.4,19.8,16.8
		c2.2,9.2-2.3,19.4-10.4,23.8c-14.3,7.8-31.4-1.8-32.1-18.1c-0.1-2,0-2.9-0.1-4.9c-0.1-2.3,0.5-3.6-3-3.6c-7,0-16.1-0.7-16.1,3.2
		c0,9,0,17.3,0,26.3c0,9.9-4.2,14.2-14,13.9c-3.5-0.1-7.1-0.5-10.5-1.4c-5.3-1.6-7.4-4.7-7.4-10.4c-0.1-16.5,0-33,0-49.4
		c0-15.4,0-30.8,0-46.2c0-1.2,0.4-2.6-0.2-3.5c-0.7-1.2-2-2.5-3.2-2.7c-0.8-0.1-2.3,1.5-2.8,2.6c-0.5,1.1-0.2,2.6-0.2,3.9
		c0,34,0,68,0,102.1c0,1.6,0,3.1,0,4.7c-4.2,1.4-6.4,0.2-8.3-3.6c-14.8-30.5-29.8-61-44.8-91.4c-0.5-1-1.2-2-2.6-2.9
		c-0.1,1.5-0.2,3-0.2,4.5c0,26.7-0.3,53.4,0.1,80.1c0.1,8.5-5.3,14.2-13.8,14c-19.7-0.4-39.3-0.1-59.7-0.1c0-7-0.1-13.8,0.2-20.7
		c0-0.8,2.2-2,3.5-2.2c10.6-1.7,19.5-6.4,26.8-14.5c22.4-24.9,12.6-64.7-19.1-75.3c-33.2-11-62.5,14.6-61.4,45.5
		c0.8,21.7,18.2,40.7,37.4,43.7c7.3,1.1,6.2-0.2,6.2,7.7c0.1,4.8,0,9.6-0.1,14.3c0,0.2-0.1,0.5-0.3,1.1c-33.6,0-67.2,0-101.1,0
		c-0.1-1.3-0.1-2.5-0.3-3.6c-0.3-2.7,0.6-3.9,3.6-4.4c9.7-1.6,18.2-5.5,22.3-15.1c5.4-12.6,3.2-32.1-14.3-38
		c-3.7-1.3-7.7-1.9-11.7-2.3c-14.7-1.6-22.3-10.8-20.7-25.5c1-9.4,8.1-17.1,17.4-18.8c9.7-1.8,19.2,2.8,23.1,11.6
		c1.5,3.5,1.8,7.7,2.3,11.6c0.3,2.4-0.2,5.3,3.4,5.1c3.5-0.1,3-3,3.1-5.4c0.8-21.4-15.5-30.2-29.8-29.5c-14.5,0.7-25.2,11.7-26,26.2
		c-1,18.5,10,30.8,29.4,31.3c10.2,0.3,18.5,8.1,19.8,18c1.5,11.6-4.4,20.9-15.3,24.3c-9.6,2.9-20.5-1.6-25-10.7
		c-1.4-2.8-2-6-2.4-9.1c-0.4-2.6,0.2-5.4-0.3-7.9c-0.3-1.4-2.1-2.4-3.2-3.6c-1,1.2-2.5,2.2-2.9,3.5c-0.5,1.7-0.1,3.7-0.1,5.5
		c0,8.5,0.1,17,0,25.5c-0.1,7-4.9,11.8-11.8,11.7c-4.1-0.1-8.3-0.2-12.1-1.3c-6.2-1.8-7.9-4.7-7.9-11.2c0-30.4,0-60.9,0-91.3
		c0-2.1,0.4-4.4-0.1-6.3c-0.4-1.4-2-2.6-3-3.8c-1.1,1.2-2.8,2.4-3,3.8c-0.5,3-0.2,6.1-0.2,9.1c0,31.9,0,63.8,0,95.7
		c0,1.6,0,3.2,0,4.9c-4,1.3-6.3,0.5-8.2-3.5c-14.8-30.7-29.9-61.2-44.9-91.8c-0.5-0.9-1-1.8-2.5-2.7c-0.1,1.4-0.2,2.9-0.2,4.3
		c0,26.2-0.3,52.4,0.1,78.5c0.2,10.3-4.1,16.7-15.6,15.7c-3-0.3-6.3,0.4-9-0.7c-5.2-2-7.4-6.2-7.4-11.9c0.1-31.6,0.1-63.3,0-94.9
		c0-2.6,1.1-6.5-3-6.6c-4.5-0.1-3.3,4-3.3,6.7c-0.1,10.2,0,20.5-0.1,30.7c-0.1,12.5-6.8,19.3-19.1,19.4c-8.9,0.1-17.8,0.1-26.7,0
		c-10.7-0.1-17.7-7.1-17.9-17.8c-0.2-11,0-22.1-0.1-33.1c0-1.1,0.3-2.4-0.2-3.1c-0.8-1.2-2-2.5-3.2-2.7c-0.9-0.1-2.3,1.5-2.8,2.6
		c-0.5,1.1-0.2,2.6-0.2,3.9c0,31.2-0.2,62.5,0.1,93.7c0.1,7.7-4.5,14.2-13.8,13.9c-19.6-0.5-39.3-0.1-59.7-0.1
		c0-7-0.1-13.9,0.2-20.7c0-0.8,2.2-2,3.5-2.2c10.6-1.7,19.5-6.4,26.8-14.4c22.4-24.9,12.7-64.7-19.1-75.3
		c-33.2-11.2-62.7,14.6-61.4,45.7c0.9,21.1,18,40.5,37.8,43.4c6.7,1,5.8-0.2,5.9,7.2c0,5.2,0,10.3,0,16.1c-1.7,0-3.1,0-4.5,0
		c-19.3,0-38.5-0.3-57.8,0.1c-7.7,0.2-12.9-6.1-12.8-12.9c0.3-31.5,0.1-63,0.1-94.5c0-1.3,0.4-2.8-0.2-3.9c-0.6-1.2-2-2.8-3-2.8
		s-2.4,1.6-3,2.8c-0.5,0.9-0.2,2.3-0.2,3.5c0,24.8,0,49.7,0,74.5c0,8-3.1,14.2-10.8,17.4c-11.3,4.7-23.4-2.9-24.2-15.1
		c-0.1-1.5-0.1-2.9-0.1-4.4c0-5.6,0-11.2,0-16.7c0-2.5,0.1-5.3-3.3-5.2c-3.1,0-3.1,2.7-3.1,5c0,0.9,0,1.9,0,2.8
		c0,11.7-0.4,23.4,0.1,35.1C295.6,130.2,290.2,137.3,279.1,135.3z M1026.7,82.8c3.1,6,3.1,6,3.5,16.9c0.3,8.1,5.8,13.6,13.6,13.5
		c7.6,0,13.2-5.4,13.4-12.8c0.3-8.1-5-13.7-13.3-14.3c-4.2-0.3-8.4-1.1-12.5-1.8C1030,84.1,1028.6,83.5,1026.7,82.8z M711.4,83.8
		c2.6,4.6,2.6,4.6,3.1,16.1c0.3,7.6,5.4,13,12.5,13.4c7.3,0.4,13.4-4.3,14.4-11c1.2-7.8-2.9-14.2-10.5-15.7
		C724.4,85.3,717.9,84.7,711.4,83.8z"/>
	<path class="st4" d="M1026.7,82.8c1.9,0.6,3.3,1.3,4.7,1.5c4.2,0.7,8.3,1.5,12.5,1.8c8.2,0.6,13.5,6.2,13.3,14.3
		c-0.2,7.4-5.9,12.8-13.4,12.8c-7.8,0-13.3-5.4-13.6-13.5C1029.8,88.8,1029.8,88.8,1026.7,82.8z"/>
	<path class="st5" d="M711.4,83.8c6.5,0.9,13.1,1.5,19.5,2.8c7.6,1.5,11.7,8,10.5,15.7c-1,6.7-7.1,11.3-14.4,11
		c-7.1-0.4-12.2-5.8-12.5-13.4C714,88.3,714,88.3,711.4,83.8z"/>
	<circle class="st6" cx="420.6" cy="67.6" r="37.8"/>
	<circle class="st6" cx="832.1" cy="67.6" r="37.8"/>
</g>
</svg>
