<?xml version="1.0" encoding="utf-8"?>
<!-- Generator: Adobe Illustrator 20.1.0, SVG Export Plug-In . SVG Version: 6.00 Build 0)  -->
<svg version="1.1" id="Calque_1" xmlns="http://www.w3.org/2000/svg" xmlns:xlink="http://www.w3.org/1999/xlink" x="0px" y="0px"
	 viewBox="0 0 429.2 545.6" style="enable-background:new 0 0 429.2 545.6;" xml:space="preserve">
<style type="text/css">
	.st0{fill:none;stroke:#FFFFFF;stroke-width:4;stroke-miterlimit:10;}
	.st1{fill:#BABABA;stroke:#FFFFFF;stroke-miterlimit:10;}
	.st2{fill:#001514;stroke:#FFFFFF;stroke-miterlimit:10;}
	.st3{fill:#212121;stroke:#FFFFFF;stroke-miterlimit:10;}
	.st4{fill:#707070;stroke:#FFFFFF;stroke-miterlimit:10;}
	.st5{fill:#9E2026;stroke:#FFFFFF;stroke-miterlimit:10;}
</style>
<circle class="st0" cx="205" cy="394.9" r="67"/>
<path class="st1" d="M203.9,327.9c-35.6,0.6-64.8,29.3-65.9,64.9c-1.2,38.1,29.4,69.3,67.2,69.1c37.2-0.1,66.7-31.2,66.7-68.2
	C271.3,356.9,241,327.3,203.9,327.9z"/>
<path class="st2" d="M272,392.4c0-0.3,0-0.6,0-0.9c0,0.5,0,1,0,1.5C272,392.9,272,392.7,272,392.4z"/>
<path class="st2" d="M271.8,387.1c0.1,1,0.1,2,0.1,3C271.9,389.1,271.8,388.1,271.8,387.1z"/>
<path class="st2" d="M271.9,390.1c0,0.5,0,0.9,0,1.4C271.9,391.1,271.9,390.6,271.9,390.1z"/>
<path class="st2" d="M272,394.9c0-0.6,0-1.2,0-1.8c0,0.2,0,0.4,0,0.6C272,394.1,272,394.5,272,394.9z"/>
<path class="st3" d="M413,129.8c-51.1-60.7-85.5-66.9-107.5-76.7c-6.7-22.5-26-50.6-26-50.6h-40.7l6.7,45.4c0,0-14.7-1.1-25.3-1.8
	c-24-36-64.7-46.1-64.7-46.1L98.8,17.3c14,6,50,42.7,50,42.7s-10.7,2.7-22.7,8.1c-40-24.7-57.4-18.5-57.4-18.5l-51.5,54.9l52.4,6
	c0,0-13.1,25-13.1,24.5c-47.5,6-56.5,21-56.5,21v65c12-21,38.2-30.5,38.2-30.5s1.6,21.5,1.1,21c-29,21.5-28.9,40-28.9,40l3.5,5.8
	c12.5-8.9,24.3-16.1,32.1-14.3l-19.6,35.2L39,299.4c11-26,27-29,27.5-28.5c17.5,23.5,76.5,30,76.5,30c49.3-0.5,124.2,5.3,128.8,86.1
	c0,0.1,0,0.1,0,0.2c0.1,1,0.1,2,0.1,3c0,0.5,0,0.9,0,1.4c0,0.3,0,0.6,0,0.9c0,0.2,0,0.4,0,0.7c0,0.6,0,1.2,0,1.8c0-0.4,0-0.8,0-1.2
	c0,37-29.6,68.1-66.7,68.2c-37.8,0.1-68.4-31.1-67.2-69.1c1.1-35.5,30.3-64.3,65.9-64.9c37.1-0.6,67.4,29,68.1,65.8
	c0-0.2,0-0.4,0-0.6c0-0.5,0-1,0-1.5c0-0.5,0-1,0-1.4c0-1-0.1-2-0.1-3c0-0.1,0-0.1,0-0.2c-4.7-78.7-77.6-84.1-129.4-84.7
	c-8.2,0.5-8.2,0.5-12.5,1.9c-12.1,3.9-29.5,13.8-44.4,29.8c-21,22.5-29.5,65-23,103s50.8,75.8,63,84c10.7,7.2,71.5,39.5,127.5,16.5
	s69.5-43.8,82-60c11.9-15.4,33.5-70,26.5-117s-27-68-45.5-90s-80.5-50-97.5-54s-48-12.5-39.5-29s28.5-11.5,55-12s119,26.5,119,25.5
	c5.5-7.5,4-16.5,4-16.5l-79-29.5l10.5-20c0,0,67,16.5,84.5,34s8.5,35.1,8.5,35.1C380.9,204.1,463,189.2,413,129.8z M2.4,198.9
	l-0.3-30.5c13.6-8.7,26.1-10.6,37.8-8L2.4,198.9z M35.4,85l23.3-24.9c15.2,4.7,21.1,15.2,23.7,27.8C74.4,83,55.9,83.5,35.4,85z
	 M120.9,10.6l27-8.3c12.4,12.5,19.7,25.8,20.5,40.2C159.8,27.2,138.7,18.5,120.9,10.6z M269.5,35.4c-5.4-13.2-10.9-24.2-17.5-33
	L267.6,2C270.1,10.5,270.1,22.5,269.5,35.4z"/>
<path class="st2" d="M271.8,387c0,0.1,0,0.1,0,0.2C271.8,387.1,271.8,387,271.8,387z"/>
<path class="st4" d="M120.9,10.6c17.7,7.9,38.9,16.6,47.6,31.8c-0.8-14.4-8.1-27.7-20.5-40.2L120.9,10.6z"/>
<path class="st4" d="M252,2.4c6.6,8.8,12.1,19.8,17.5,33c0.6-12.9,0.6-24.4-1.9-32.9L252,2.4z"/>
<path class="st4" d="M58.8,60.1L35.4,85c20.4-1.5,38.9-2,47.1,2.9C79.9,75.3,73.9,64.9,58.8,60.1z"/>
<path class="st4" d="M0,168.2v33.7l39.5-41.5C27.7,157.8,14,159.5,0,168.2z"/>
<polygon class="st2" points="13.9,257.2 26.4,278.2 26.4,278.2 14,257.2 "/>
<path class="st4" d="M14,257.2l12.4,20.9L46,242.9C38.2,241.1,26.4,248.4,14,257.2z"/>
<path class="st4" d="M401,179.1c-18.7-33.4-38.5-43.8-58.5-48.2c7.6-1.5,17.9-7.2,19.5-8.8c1.7-1.7,2.2-15.8,0.5-20.7
	C414.6,144.4,411.6,163.8,401,179.1z"/>
<path class="st4" d="M296.5,116.9c10.3-6.1,22.4-15.8,23-31.5c13.3,0.3,22.5,8.8,26,29.2C324.6,123.3,309.3,122.3,296.5,116.9z"/>
<path class="st4" d="M288,111.4c-19.4-4.1-47.2-6.5-89.5-6c-11.8-12.3-9.8-23.6,5-34c28.8-2.3,69.2-4.8,101.5,8.5
	C308,92.1,308.3,103.8,288,111.4z"/>
<path class="st5" d="M209.6,85.4c35.2-15,57.1-12.9,83.4,9C259.1,107.6,232.4,101.7,209.6,85.4z"/>
<polygon class="st4" points="263,48.9 287,48.9 290.5,61.9 275.3,56.7 259.5,60.1 "/>
<polygon class="st4" points="165.6,53.6 194.5,48.4 208.6,60.5 187.3,61.7 170,72.6 "/>
<path class="st4" d="M86.5,103.2L105,75.8l11,7.1c-14.6,6.1-23,17.3-23.3,34.8L86.5,103.2z"/>
<path class="st4" d="M58,179.1H48l4.8-27.4l13.7-4.3C60.3,159.3,58,169.4,58,179.1z"/>
<path class="st4" d="M69,251h-8l-11.2-28.4l7.7-2.3C53,238.7,70.9,248.7,69,251z"/>
<path class="st4" d="M178.5,77.9c-2.6,10.7-0.9,20.9,6,30.5c-13.7,0-27,5.6-41.5,13.7C146.9,101.9,156.5,85.4,178.5,77.9z"/>
<path class="st4" d="M98.2,115.3c-1.8,19.3,2.9,23.2,9.8,23c8.1-0.2,19.6-10.5,23.5-23.4c3.5-11.6,0.2-27.9-12.3-26.1
	C109.3,90.1,99.2,104.8,98.2,115.3z"/>
<path class="st4" d="M143,214.4c-27.3,5.1-48,4.7-63.3-0.1c-7-2.2-12.3-8-13.7-15.2c-4.1-20.4,2.3-43.6,20.6-70.2
	c8.3,30.1,26.8,51,77.2,43C164.5,188.1,161,203.2,143,214.4z"/>
<path class="st4" d="M179,248.9c-11.8,22.4-48.5,36.9-82,23.4c-19.4-10-21.3-24.9-22.5-39.9c34.9,8.8,64.7,5.1,88-14.1
	C176.6,227,186.2,236.5,179,248.9z"/>
<path class="st4" d="M220,240.8c-4.5-2.8-11.4-4.5-24-5.2c-1.9,15.1-13.1,28.9-29.4,41.9c10.7,4.7,22.1,7.9,35.2,6.7
	c2.1-0.2,4.2-0.7,6.1-1.6c12.1-5.5,18.8-15.1,18.8-29C226.9,248.5,224.4,243.6,220,240.8z"/>
<path class="st4" d="M143,158.3c39.3-5.4,78.9-3.8,118.5,1c-1.6-10.6-0.7-22.2,4.5-34.4c-64.7-12-112-6.1-134.5,25.5
	c32.1-15.7,60-17.9,86-14C179.6,145.6,154.9,153.1,143,158.3z"/>
<path class="st4" d="M312,302.3c-10.6-6-21.1-9.2-31.2-1.9c5.4,12.4,3.4,24.2-1,35.8c-15-21.8-33.1-39.1-61.5-47
	c16.1-10.5,24.4-23.4,21.8-39.8C273.9,256.4,293.7,278.6,312,302.3z"/>
<path class="st4" d="M337.2,418.9c-3.6-10.3-8.1-20.2-15.2-28.5c-8.6,11.1-18,19.8-28,26.5c-13.3,44.3-43.4,62.9-82,68.5
	c-2.6,18.8,10.3,29.4,26.5,38.2C310.4,499.7,330.3,461.1,337.2,418.9z"/>
<path class="st4" d="M220.5,525.7c-18.7,2.4-48.3-1.2-63.5-9c-4-13.3-2.6-27.7,2.5-42.8c12.7,6.4,25.8,11.1,40.2,10.9
	C196.4,498.9,204.2,512.5,220.5,525.7z"/>
<path class="st4" d="M144.5,509.4c-16.3-7.6-30.7-17.9-40.2-35.5c2-15,8.8-26,21.8-31.8c7.3,10.2,15,19.4,23.8,25
	C146.1,481.1,144.4,495.2,144.5,509.4z"/>
<path class="st4" d="M122,433.2c-11.6,4-19.9,15.7-26.8,30.5c-9.2-15.1-16-30.2-15.5-45.2c11.3-6.9,23.2-10.1,36.2-6.2L122,433.2z"
	/>
<path class="st4" d="M113.2,401.2c-14.6-1.8-25.8,0.9-34.7,6.7c-0.4-10.9,1.2-21.8,5.8-32.6c10.5-6.1,20.4-1.9,30.1,6.9L113.2,401.2
	z"/>
<path class="st4" d="M117,370.4c-6.2-7.1-16-10-30.5-7.5c2.6-5.6,8.7-13.1,17.8-22c10.3-2.6,17-0.4,19.5,7.7
	C123.7,356,121.6,363.3,117,370.4z"/>
<path class="st4" d="M162,313.4c-12.8,8.6-23.6,17.8-31,28c-0.4-4.3-6.6-7.4-16.5-9.8C125.5,319.9,141.9,314.5,162,313.4z"/>
<path class="st4" d="M284.8,348.6c8-12.9,13.7-25,14.2-35.2c6,0.9,11.8,2.7,17.6,5.5c5,2.4,8.9,6.4,11.2,11.4
	c8.6,18.9,12.4,41.3,13.4,65.8l-20.8-31.8c-4.6,15.2-12.2,26.9-23.8,34.2C295.8,378,292.2,360.7,284.8,348.6z"/>
<path class="st5" d="M115.1,103c6.4-3.4,9.2,0.1,9.1,6c-0.1,5.1-2.7,13.8-8.1,16.1c-3.6,1.5-7.3,2-9.2-3.5
	C105.6,116.6,106.3,108.9,115.1,103z"/>
<circle class="st5" cx="106.8" cy="192.2" r="16.8"/>
<circle class="st5" cx="131.5" cy="255.7" r="14.8"/>
<circle class="st5" cx="200.5" cy="264.4" r="11.5"/>
<circle class="st5" cx="316" cy="425.4" r="12.8"/>
<circle class="st5" cx="242.8" cy="498.9" r="14.2"/>
<circle class="st5" cx="179.5" cy="502.2" r="11.8"/>
<circle class="st5" cx="127" cy="473.9" r="11"/>
<circle class="st5" cx="98" cy="430.2" r="11.5"/>
<circle class="st5" cx="98" cy="388.9" r="8.5"/>
<circle class="st5" cx="109.5" cy="353.7" r="6.5"/>
<circle class="st5" cx="130.8" cy="329.4" r="4.3"/>
</svg>
